<svg width="307" height="257" viewBox="0 0 307 257" fill="none" xmlns="http://www.w3.org/2000/svg">
<g clip-path="url(#clip0_1591_1950)">
<path d="M126.498 60.2869H125.104V22.101C125.104 19.1986 124.532 16.3247 123.422 13.6433C122.311 10.9619 120.683 8.52547 118.631 6.47321C116.578 4.42094 114.142 2.79299 111.461 1.68232C108.779 0.571644 105.905 -9.08006e-06 103.003 1.08174e-10H22.101C19.1987 -9.08006e-06 16.3247 0.571643 13.6433 1.68232C10.9619 2.79299 8.5255 4.42094 6.47323 6.47321C4.42096 8.52548 2.79301 10.9619 1.68233 13.6433C0.57165 16.3247 -4.54007e-06 19.1986 0 22.101V231.592C-2.72403e-06 234.494 0.571654 237.368 1.68233 240.049C2.79301 242.731 4.42097 245.167 6.47324 247.219C8.52551 249.272 10.9619 250.9 13.6433 252.01C16.3247 253.121 19.1987 253.693 22.101 253.693H103.003C105.905 253.693 108.779 253.121 111.461 252.01C114.142 250.9 116.578 249.272 118.631 247.219C120.683 245.167 122.311 242.731 123.422 240.049C124.532 237.368 125.104 234.494 125.104 231.592V87.4682H126.498V60.2869Z" fill="#E6E6E6"/>
<path d="M103.894 5.74988H93.3336C93.8193 6.94052 94.0046 8.23233 93.8734 9.51149C93.7422 10.7907 93.2984 12.0179 92.5812 13.0852C91.864 14.1524 90.8952 15.0269 89.7604 15.6316C88.6256 16.2363 87.3595 16.5526 86.0736 16.5527H39.7259C38.44 16.5526 37.1739 16.2363 36.0391 15.6316C34.9042 15.0269 33.9355 14.1524 33.2183 13.0852C32.501 12.0179 32.0572 10.7907 31.926 9.51149C31.7948 8.23233 31.9802 6.94052 32.4658 5.74988H22.6024C20.435 5.74987 18.2888 6.17678 16.2863 7.00622C14.2839 7.83566 12.4644 9.05139 10.9318 10.584C9.39919 12.1166 8.18346 13.9361 7.35402 15.9385C6.52457 17.941 6.09766 20.0872 6.09766 22.2546V231.438C6.09766 233.605 6.52457 235.752 7.35401 237.754C8.18345 239.757 9.39919 241.576 10.9318 243.109C12.4644 244.641 14.2839 245.857 16.2863 246.686C18.2888 247.516 20.435 247.943 22.6024 247.943H103.894C106.061 247.943 108.208 247.516 110.21 246.686C112.213 245.857 114.032 244.641 115.565 243.109C117.097 241.576 118.313 239.757 119.142 237.754C119.972 235.752 120.399 233.605 120.399 231.438V22.2546C120.399 20.0872 119.972 17.941 119.142 15.9385C118.313 13.9361 117.097 12.1166 115.565 10.584C114.032 9.05139 112.213 7.83566 110.21 7.00622C108.208 6.17678 106.061 5.74987 103.894 5.74988Z" fill="white"/>
<path d="M39.298 48.2744H34.4443C34.2736 48.2744 34.1099 48.3422 33.9893 48.4629C33.8686 48.5836 33.8008 48.7472 33.8008 48.9179V51.0483C33.8008 51.219 33.8686 51.3827 33.9893 51.5034C34.1099 51.624 34.2736 51.6918 34.4443 51.6918H35.2486V54.8839H38.4936V51.6918H39.298C39.4686 51.6918 39.6323 51.624 39.753 51.5034C39.8736 51.3827 39.9414 51.219 39.9414 51.0483V48.9179C39.9414 48.7472 39.8736 48.5836 39.753 48.4629C39.6323 48.3422 39.4686 48.2744 39.298 48.2744Z" fill="#E6E6E6"/>
<path d="M44.1587 67.7725C41.1862 63.4228 39.6665 58.244 39.8175 52.9778C39.8202 52.8563 39.7808 52.7376 39.7059 52.6419C39.6311 52.5462 39.5253 52.4793 39.4067 52.4527V51.5321H34.2806V52.4399H34.21C34.0705 52.44 33.9368 52.4956 33.8383 52.5944C33.7398 52.6932 33.6845 52.827 33.6847 52.9665C33.6847 52.9793 33.6852 52.9921 33.6861 53.0048C34.09 58.6343 32.7263 63.6827 29.5951 68.15C29.4149 68.4067 29.3229 68.715 29.3328 69.0285L29.8933 86.3668C29.9067 86.7536 30.0691 87.1201 30.3463 87.3901C30.6236 87.66 30.9944 87.8124 31.3814 87.8155H42.9759C43.3672 87.8123 43.7419 87.6564 44.02 87.381C44.2982 87.1057 44.4578 86.7326 44.4649 86.3413L44.6809 69.5072C44.6873 68.8893 44.5051 68.2841 44.1587 67.7725Z" fill="#E6E6E6"/>
<path d="M42.3236 73.5315H32.2314C32.0821 73.5315 31.9344 73.5638 31.7987 73.6262C31.663 73.6886 31.5423 73.7796 31.4451 73.893C31.3478 74.0063 31.2762 74.1394 31.2351 74.2831C31.1941 74.4267 31.1846 74.5775 31.2074 74.7252L32.7324 84.6381H41.4895L43.342 74.7586C43.37 74.6089 43.3648 74.455 43.3265 74.3076C43.2883 74.1602 43.2181 74.0231 43.1209 73.9059C43.0237 73.7888 42.9018 73.6945 42.764 73.6298C42.6262 73.565 42.4758 73.5315 42.3236 73.5315Z" fill="white"/>
<path d="M93.3292 100.214H88.4755C88.3049 100.214 88.1412 100.281 88.0205 100.402C87.8998 100.523 87.832 100.686 87.832 100.857V102.988C87.832 103.158 87.8998 103.322 88.0205 103.443C88.1412 103.563 88.3049 103.631 88.4755 103.631H89.2799V106.823H92.5249V103.631H93.3292C93.4999 103.631 93.6635 103.563 93.7842 103.443C93.9049 103.322 93.9727 103.158 93.9727 102.988V100.857C93.9727 100.686 93.9049 100.523 93.7842 100.402C93.6635 100.281 93.4999 100.214 93.3292 100.214Z" fill="#E6E6E6"/>
<path d="M98.1899 119.712C95.2174 115.362 93.6978 110.183 93.8488 104.917C93.8515 104.795 93.8121 104.677 93.7372 104.581C93.6623 104.485 93.5566 104.418 93.438 104.392V103.471H88.3119V104.379H88.2413C88.1722 104.379 88.1038 104.393 88.04 104.419C87.9762 104.446 87.9183 104.485 87.8695 104.533C87.8207 104.582 87.7821 104.64 87.7557 104.704C87.7294 104.768 87.7159 104.837 87.716 104.906C87.716 104.918 87.7164 104.931 87.7174 104.944C88.1212 110.573 86.7576 115.622 83.6263 120.089C83.4462 120.346 83.3541 120.654 83.364 120.968L83.9245 138.306C83.938 138.693 84.1003 139.059 84.3776 139.329C84.6548 139.599 85.0257 139.751 85.4126 139.755H97.0071C97.3985 139.751 97.7732 139.595 98.0513 139.32C98.3294 139.045 98.489 138.672 98.4961 138.28L98.7121 121.446C98.7185 120.828 98.5364 120.223 98.1899 119.712Z" fill="#E6E6E6"/>
<path d="M96.3548 125.471H86.2627C86.1133 125.471 85.9657 125.503 85.83 125.565C85.6942 125.628 85.5736 125.719 85.4763 125.832C85.379 125.946 85.3074 126.079 85.2664 126.222C85.2254 126.366 85.2159 126.517 85.2386 126.664L86.7637 136.577H95.5208L97.3732 126.698C97.4013 126.548 97.396 126.394 97.3578 126.247C97.3196 126.099 97.2494 125.962 97.1521 125.845C97.0549 125.728 96.933 125.634 96.7952 125.569C96.6574 125.504 96.5071 125.471 96.3548 125.471Z" fill="white"/>
<path d="M32.4747 173.641H30.1724C30.0915 173.641 30.0138 173.673 29.9566 173.73C29.8993 173.787 29.8672 173.865 29.8672 173.946V174.956C29.8672 175.037 29.8993 175.115 29.9566 175.172C30.0138 175.229 30.0915 175.262 30.1724 175.262H30.554V176.776H32.0932V175.262H32.4747C32.5557 175.262 32.6333 175.229 32.6906 175.172C32.7478 175.115 32.78 175.037 32.78 174.956V173.946C32.78 173.865 32.7478 173.787 32.6906 173.73C32.6333 173.673 32.5557 173.641 32.4747 173.641Z" fill="#E6E6E6"/>
<path d="M34.783 182.889C33.373 180.826 32.6521 178.369 32.7238 175.871C32.725 175.814 32.7063 175.757 32.6708 175.712C32.6353 175.667 32.5851 175.635 32.5289 175.622V175.186H30.0973V175.616H30.0638C30.0311 175.616 29.9986 175.623 29.9684 175.635C29.9381 175.648 29.9106 175.666 29.8875 175.69C29.8644 175.713 29.846 175.74 29.8335 175.771C29.821 175.801 29.8146 175.833 29.8147 175.866C29.8147 175.872 29.8149 175.878 29.8154 175.884C30.0398 178.433 29.3521 180.979 27.8748 183.068C27.7893 183.19 27.7456 183.336 27.7503 183.485L28.0162 191.709C28.0226 191.893 28.0996 192.067 28.2311 192.195C28.3626 192.323 28.5385 192.395 28.7221 192.397H34.2219C34.4075 192.395 34.5852 192.321 34.7172 192.19C34.8491 192.06 34.9248 191.883 34.9282 191.697L35.0306 183.712C35.0337 183.419 34.9473 183.132 34.783 182.889Z" fill="#E6E6E6"/>
<path d="M33.9899 185.912H28.7422V188.536H33.9899V185.912Z" fill="white"/>
<path d="M43.1935 173.641H40.8912C40.8102 173.641 40.7326 173.673 40.6753 173.73C40.6181 173.787 40.5859 173.865 40.5859 173.946V174.956C40.5859 175.037 40.6181 175.115 40.6753 175.172C40.7326 175.229 40.8102 175.262 40.8912 175.262H41.2727V176.776H42.812V175.262H43.1935C43.2745 175.262 43.3521 175.229 43.4093 175.172C43.4666 175.115 43.4987 175.037 43.4987 174.956V173.946C43.4987 173.865 43.4666 173.787 43.4093 173.73C43.3521 173.673 43.2745 173.641 43.1935 173.641Z" fill="#E6E6E6"/>
<path d="M45.4978 182.889C44.0878 180.826 43.367 178.369 43.4386 175.871C43.4399 175.814 43.4212 175.757 43.3857 175.712C43.3501 175.667 43.3 175.635 43.2437 175.622V175.186H40.8122V175.616H40.7787C40.7459 175.616 40.7135 175.623 40.6832 175.635C40.653 175.648 40.6255 175.666 40.6024 175.69C40.5792 175.713 40.5609 175.74 40.5484 175.771C40.5359 175.801 40.5295 175.833 40.5295 175.866C40.5295 175.872 40.5297 175.878 40.5302 175.884C40.7546 178.433 40.0669 180.979 38.5896 183.068C38.5042 183.19 38.4605 183.336 38.4652 183.485L38.731 191.709C38.7374 191.893 38.8144 192.067 38.946 192.195C39.0775 192.323 39.2534 192.395 39.4369 192.397H44.9367C45.1224 192.395 45.3001 192.321 45.432 192.19C45.564 192.06 45.6397 191.883 45.643 191.697L45.7455 183.712C45.7485 183.419 45.6621 183.132 45.4978 182.889Z" fill="#E6E6E6"/>
<path d="M44.7087 185.912H39.4609V188.536H44.7087V185.912Z" fill="white"/>
<path d="M53.9083 173.641H51.606C51.5251 173.641 51.4474 173.673 51.3902 173.73C51.3329 173.787 51.3008 173.865 51.3008 173.946V174.956C51.3008 175.037 51.3329 175.115 51.3902 175.172C51.4474 175.229 51.5251 175.262 51.606 175.262H51.9875V176.776H53.5268V175.262H53.9083C53.9893 175.262 54.0669 175.229 54.1242 175.172C54.1814 175.115 54.2136 175.037 54.2136 174.956V173.946C54.2136 173.865 54.1814 173.787 54.1242 173.73C54.0669 173.673 53.9893 173.641 53.9083 173.641Z" fill="#E6E6E6"/>
<path d="M56.2166 182.889C54.8065 180.826 54.0857 178.369 54.1574 175.871C54.1586 175.814 54.1399 175.757 54.1044 175.712C54.0689 175.667 54.0187 175.635 53.9625 175.622V175.186H51.5309V175.616H51.4974C51.4647 175.616 51.4322 175.623 51.402 175.635C51.3717 175.648 51.3442 175.666 51.3211 175.69C51.298 175.713 51.2796 175.74 51.2671 175.771C51.2546 175.801 51.2482 175.833 51.2483 175.866C51.2483 175.872 51.2485 175.878 51.249 175.884C51.4734 178.433 50.7857 180.979 49.3084 183.068C49.2229 183.19 49.1792 183.336 49.1839 183.485L49.4498 191.709C49.4562 191.893 49.5332 192.067 49.6647 192.195C49.7962 192.323 49.9721 192.395 50.1557 192.397H55.6555C55.8411 192.395 56.0188 192.321 56.1508 192.19C56.2827 192.06 56.3584 191.883 56.3618 191.697L56.4642 183.712C56.4673 183.419 56.3809 183.132 56.2166 182.889Z" fill="#E6E6E6"/>
<path d="M55.4235 185.912H50.1758V188.536H55.4235V185.912Z" fill="white"/>
<path d="M84.8995 153.547H80.0459C79.9613 153.547 79.8777 153.564 79.7996 153.596C79.7215 153.629 79.6506 153.676 79.5908 153.736C79.5311 153.795 79.4837 153.866 79.4513 153.944C79.419 154.023 79.4023 154.106 79.4023 154.191V156.321C79.4023 156.492 79.4701 156.656 79.5908 156.776C79.7115 156.897 79.8752 156.965 80.0459 156.965H80.8502V160.157H84.0952V156.965H84.8995C85.0702 156.965 85.2339 156.897 85.3545 156.776C85.4752 156.656 85.543 156.492 85.543 156.321V154.191C85.543 154.106 85.5264 154.023 85.494 153.944C85.4617 153.866 85.4143 153.795 85.3545 153.736C85.2948 153.676 85.2238 153.629 85.1458 153.596C85.0677 153.564 84.984 153.547 84.8995 153.547Z" fill="#E6E6E6"/>
<path d="M89.7603 173.045C86.7877 168.696 85.2681 163.517 85.4191 158.251C85.4218 158.129 85.3824 158.01 85.3075 157.915C85.2326 157.819 85.1269 157.752 85.0083 157.725V156.805H79.8822V157.713H79.8116C79.7425 157.713 79.6741 157.726 79.6103 157.753C79.5466 157.779 79.4886 157.818 79.4398 157.867C79.3911 157.916 79.3524 157.974 79.326 158.038C79.2997 158.102 79.2862 158.17 79.2863 158.239C79.2863 158.252 79.2868 158.265 79.2877 158.278C79.6916 163.907 78.3279 168.955 75.1967 173.423C75.0165 173.679 74.9244 173.988 74.9343 174.301L75.4948 191.64C75.5083 192.026 75.6706 192.393 75.9479 192.663C76.2252 192.933 76.596 193.085 76.9829 193.088H88.5774C88.9688 193.085 89.3435 192.929 89.6216 192.654C89.8997 192.378 90.0593 192.005 90.0664 191.614L90.2824 174.78C90.2888 174.162 90.1067 173.557 89.7603 173.045Z" fill="#E6E6E6"/>
<path d="M87.9251 178.804H77.833C77.6836 178.804 77.536 178.836 77.4003 178.899C77.2645 178.961 77.1439 179.052 77.0466 179.166C76.9493 179.279 76.8777 179.412 76.8367 179.556C76.7957 179.699 76.7862 179.85 76.8089 179.998L78.334 189.911H87.0911L88.9435 180.031C88.9716 179.882 88.9663 179.728 88.9281 179.58C88.8899 179.433 88.8197 179.296 88.7224 179.179C88.6252 179.061 88.5034 178.967 88.3656 178.902C88.2278 178.838 88.0774 178.804 87.9251 178.804Z" fill="white"/>
<path d="M87.5459 90.047H58.6133C60.6361 79.1107 60.1707 65.9047 58.6133 51.7026H87.5459C86.0299 65.9048 85.5769 79.1107 87.5459 90.047Z" fill="#E6E6E6"/>
<path d="M73.2569 76.8011C77.1072 76.8011 80.2286 73.6797 80.2286 69.8294C80.2286 65.979 77.1072 62.8577 73.2569 62.8577C69.4065 62.8577 66.2852 65.979 66.2852 69.8294C66.2852 73.6797 69.4065 76.8011 73.2569 76.8011Z" fill="white"/>
<path d="M61.0537 140.941H32.1211C34.1439 130.005 33.6785 116.799 32.1211 102.596H61.0537C59.5377 116.799 59.0847 130.005 61.0537 140.941Z" fill="#E6E6E6"/>
<path d="M46.7647 127.694C50.615 127.694 53.7364 124.573 53.7364 120.723C53.7364 116.872 50.615 113.751 46.7647 113.751C42.9143 113.751 39.793 116.872 39.793 120.723C39.793 124.573 42.9143 127.694 46.7647 127.694Z" fill="white"/>
<path d="M103.933 92.4873H75C77.0228 81.551 76.5574 68.345 75 54.1429H103.933C102.417 68.3451 101.964 81.551 103.933 92.4873Z" fill="#E6E6E6"/>
<path d="M89.6397 79.2413C93.49 79.2413 96.6114 76.1199 96.6114 72.2696C96.6114 68.4192 93.49 65.2979 89.6397 65.2979C85.7893 65.2979 82.668 68.4192 82.668 72.2696C82.668 76.1199 85.7893 79.2413 89.6397 79.2413Z" fill="white"/>
<path d="M103.933 90.7443H75C77.0228 79.808 76.5574 66.602 75 52.3999H103.933C102.417 66.6021 101.964 79.808 103.933 90.7443Z" fill="#E6E6E6"/>
<path d="M89.6397 77.4982C93.49 77.4982 96.6114 74.3769 96.6114 70.5265C96.6114 66.6761 93.49 63.5548 89.6397 63.5548C85.7893 63.5548 82.668 66.6761 82.668 70.5265C82.668 74.3769 85.7893 77.4982 89.6397 77.4982Z" fill="white"/>
<path d="M103.933 92.4873H75C77.0228 81.551 76.5574 68.345 75 54.1429H103.933C102.417 68.3451 101.964 81.551 103.933 92.4873Z" fill="#E6E6E6"/>
<path d="M89.6397 79.2413C93.49 79.2413 96.6114 76.1199 96.6114 72.2696C96.6114 68.4192 93.49 65.2979 89.6397 65.2979C85.7893 65.2979 82.668 68.4192 82.668 72.2696C82.668 76.1199 85.7893 79.2413 89.6397 79.2413Z" fill="white"/>
<path d="M110.553 87.9559H15.7383V98.4135H110.553V87.9559Z" fill="#E6E6E6"/>
<path d="M110.553 139.895H15.7383V150.353H110.553V139.895Z" fill="#E6E6E6"/>
<path d="M110.553 191.834H15.7383V202.292H110.553V191.834Z" fill="#E6E6E6"/>
<path d="M275.488 234.26L251.867 217.553C259.834 209.792 267.08 198.742 274.009 186.247L297.63 202.954C288.192 213.674 280.196 224.194 275.488 234.26Z" fill="#059669"/>
<path d="M275.495 216.472C279.346 216.472 282.467 213.351 282.467 209.501C282.467 205.65 279.346 202.529 275.495 202.529C271.645 202.529 268.523 205.65 268.523 209.501C268.523 213.351 271.645 216.472 275.495 216.472Z" fill="white"/>
<path d="M161.542 158.021H158.949C158.858 158.021 158.771 158.057 158.706 158.122C158.642 158.186 158.605 158.274 158.605 158.365V159.503C158.605 159.548 158.614 159.593 158.632 159.635C158.649 159.676 158.674 159.714 158.706 159.746C158.738 159.778 158.776 159.803 158.818 159.821C158.859 159.838 158.904 159.847 158.949 159.847H159.379V161.552H161.112V159.847H161.542C161.633 159.847 161.721 159.811 161.785 159.746C161.85 159.682 161.886 159.594 161.886 159.503V158.365C161.886 158.274 161.85 158.186 161.785 158.122C161.721 158.057 161.633 158.021 161.542 158.021Z" fill="#E6E6E6"/>
<path d="M164.139 168.437C162.551 166.114 161.74 163.347 161.82 160.534C161.822 160.469 161.801 160.406 161.761 160.354C161.721 160.303 161.664 160.268 161.601 160.253V159.762H158.862V160.247H158.825C158.788 160.247 158.751 160.254 158.717 160.268C158.683 160.282 158.652 160.303 158.626 160.329C158.6 160.355 158.579 160.386 158.565 160.42C158.551 160.454 158.544 160.491 158.544 160.528C158.544 160.535 158.544 160.542 158.545 160.548C158.798 163.419 158.023 166.286 156.359 168.639C156.263 168.776 156.214 168.941 156.219 169.108L156.519 178.371C156.526 178.577 156.612 178.773 156.761 178.917C156.909 179.062 157.107 179.143 157.314 179.145H163.507C163.717 179.143 163.917 179.06 164.065 178.913C164.214 178.765 164.299 178.566 164.303 178.357L164.418 169.364C164.422 169.034 164.324 168.711 164.139 168.437Z" fill="#059669"/>
<path opacity="0.2" d="M161.003 158.392C161.003 158.589 160.925 158.778 160.786 158.917C160.647 159.056 160.458 159.134 160.261 159.134C160.064 159.134 159.876 159.056 159.737 158.917C159.598 158.778 159.52 158.589 159.52 158.392" fill="black"/>
<path d="M162.932 170.222H157.703V173.708H162.932V170.222Z" fill="white"/>
<path d="M243.595 194.206H238.741C238.57 194.206 238.407 194.274 238.286 194.394C238.165 194.515 238.098 194.679 238.098 194.849V196.98C238.098 197.15 238.165 197.314 238.286 197.435C238.407 197.555 238.57 197.623 238.741 197.623H239.545V200.815H242.791V197.623H243.595C243.766 197.623 243.929 197.555 244.05 197.435C244.171 197.314 244.238 197.15 244.238 196.98V194.849C244.238 194.679 244.171 194.515 244.05 194.394C243.929 194.274 243.766 194.206 243.595 194.206Z" fill="#E6E6E6"/>
<path d="M248.459 213.703C245.487 209.354 243.967 204.175 244.118 198.909C244.121 198.787 244.082 198.668 244.007 198.573C243.932 198.477 243.826 198.41 243.708 198.383V197.463H238.581V198.371H238.511C238.442 198.371 238.373 198.384 238.31 198.411C238.246 198.437 238.188 198.476 238.139 198.525C238.09 198.574 238.052 198.632 238.025 198.696C237.999 198.76 237.985 198.828 237.985 198.897C237.985 198.91 237.986 198.923 237.987 198.936C238.391 204.565 237.027 209.613 233.896 214.081C233.716 214.338 233.624 214.646 233.634 214.959L234.194 232.298C234.208 232.684 234.37 233.051 234.647 233.321C234.924 233.591 235.295 233.743 235.682 233.746H247.277C247.668 233.743 248.043 233.587 248.321 233.312C248.599 233.036 248.759 232.663 248.766 232.272L248.982 215.438C248.988 214.82 248.806 214.215 248.459 213.703Z" fill="#059669"/>
<path opacity="0.2" d="M242.585 194.9C242.585 195.268 242.439 195.621 242.179 195.882C241.918 196.142 241.565 196.288 241.197 196.288C240.829 196.288 240.476 196.142 240.215 195.882C239.955 195.621 239.809 195.268 239.809 194.9" fill="black"/>
<path d="M246.62 219.463H236.528C236.379 219.463 236.231 219.495 236.096 219.558C235.96 219.62 235.839 219.711 235.742 219.824C235.645 219.938 235.573 220.071 235.532 220.214C235.491 220.358 235.482 220.509 235.504 220.657L237.029 230.57H245.786L247.639 220.69C247.667 220.54 247.662 220.386 247.623 220.239C247.585 220.092 247.515 219.954 247.418 219.837C247.321 219.72 247.199 219.626 247.061 219.561C246.923 219.496 246.773 219.463 246.62 219.463Z" fill="white"/>
<path d="M229.749 234.233H200.816C202.839 223.296 202.374 210.09 200.816 195.888H229.749C228.233 210.09 227.78 223.296 229.749 234.233Z" fill="#059669"/>
<path d="M215.456 220.987C219.306 220.987 222.428 217.865 222.428 214.015C222.428 210.165 219.306 207.043 215.456 207.043C211.606 207.043 208.484 210.165 208.484 214.015C208.484 217.865 211.606 220.987 215.456 220.987Z" fill="white"/>
<path d="M111.406 113.557L117.901 112.967L122.035 102.929L114.654 98.7955L111.406 113.557Z" fill="#FFB8B8"/>
<path d="M171.012 141.114C171.228 140.575 171.313 139.993 171.26 139.415C171.207 138.838 171.017 138.281 170.706 137.79C170.396 137.3 169.973 136.891 169.473 136.596C168.973 136.302 168.41 136.13 167.831 136.095L157.747 135.494L156.262 140.432L166.643 143.283C167.511 143.521 168.436 143.432 169.241 143.032C170.047 142.632 170.678 141.949 171.012 141.114Z" fill="#FFB8B8"/>
<path d="M160.186 143.366L160.075 134.101L137.674 130.527L120.418 110.735C119.52 109.705 118.279 109.036 116.925 108.851C115.572 108.666 114.197 108.977 113.056 109.728C112.365 110.183 111.782 110.784 111.349 111.488C110.915 112.193 110.642 112.984 110.548 113.806C110.454 114.628 110.542 115.46 110.805 116.245C111.069 117.029 111.501 117.746 112.072 118.344L126.308 135.865L160.186 143.366Z" fill="#575A89"/>
<path d="M106.387 247.594H112.291L126.937 181.377L142.11 201.833L150.967 246.118H156.576L155.396 198.585L135.615 147.805H116.129C110.805 157.442 106.627 167.375 111.406 177.623L106.387 247.594Z" fill="#2F2E41"/>
<path d="M147.347 251.616C147.282 251.825 147.262 252.045 147.289 252.263C147.315 252.48 147.388 252.689 147.501 252.876C147.615 253.063 147.767 253.224 147.948 253.347C148.129 253.471 148.334 253.555 148.549 253.593L162.998 256.157C163.569 256.261 164.158 256.153 164.655 255.853C165.152 255.553 165.522 255.082 165.695 254.528C165.863 253.998 165.84 253.426 165.628 252.913C165.417 252.399 165.031 251.976 164.539 251.718C161.362 250.087 158.628 247.71 156.571 244.791C154.983 246.27 153.208 246.13 151.323 245.041L149.324 245.291L147.347 251.616Z" fill="#2F2E41"/>
<path d="M103.652 251.616C103.587 251.825 103.567 252.045 103.593 252.263C103.62 252.48 103.693 252.689 103.806 252.876C103.92 253.063 104.072 253.224 104.253 253.347C104.433 253.471 104.638 253.555 104.854 253.593L119.303 256.157C119.873 256.261 120.463 256.153 120.96 255.853C121.457 255.553 121.826 255.082 121.999 254.528C122.168 253.998 122.144 253.426 121.933 252.913C121.722 252.399 121.336 251.976 120.844 251.718C117.667 250.087 114.933 247.71 112.876 244.791C111.288 246.27 109.513 246.13 107.628 245.041L105.629 245.291L103.652 251.616Z" fill="#2F2E41"/>
<path d="M122.181 106.62C126.746 106.62 130.447 102.919 130.447 98.3533C130.447 93.7878 126.746 90.0868 122.181 90.0868C117.615 90.0868 113.914 93.7878 113.914 98.3533C113.914 102.919 117.615 106.62 122.181 106.62Z" fill="#FFB8B8"/>
<path d="M114.8 150.019L136.352 149.429L130.023 129.508C133.956 123.203 129.998 116.903 124.395 110.605L119.967 107.653L112.881 107.062C109.813 110.345 108.135 114.688 108.197 119.18C108.337 128.8 110.041 139.273 114.8 150.019Z" fill="#575A89"/>
<path d="M164.316 163.428C164.727 163.017 165.034 162.515 165.212 161.963C165.391 161.411 165.435 160.824 165.342 160.252C165.25 159.679 165.022 159.136 164.678 158.669C164.335 158.201 163.885 157.822 163.366 157.562L154.331 153.042L151.023 156.997L159.446 163.703C160.15 164.263 161.036 164.545 161.934 164.494C162.832 164.443 163.68 164.064 164.316 163.428Z" fill="#FFB8B8"/>
<path d="M153.478 161.238L157.021 152.676L137.833 140.578L129.753 115.593C129.333 114.293 128.456 113.19 127.284 112.487C126.112 111.785 124.726 111.53 123.381 111.772C122.567 111.918 121.795 112.241 121.119 112.718C120.444 113.196 119.881 113.816 119.472 114.534C119.062 115.253 118.815 116.053 118.749 116.877C118.682 117.702 118.798 118.531 119.087 119.306L125.283 141.014L153.478 161.238Z" fill="#575A89"/>
<path d="M108.602 95.1056C108.602 98.3221 110.69 103.303 113.325 105.439C115.098 106.875 117.441 106.815 118.344 104.848C119.271 102.831 122.465 98.0886 128.087 95.1056C135.581 91.1289 125.429 84.3255 118.344 85.3628C113.02 86.1424 108.602 89.7248 108.602 95.1056Z" fill="#2F2E41"/>
<path d="M113.62 90.6768C116.881 90.6768 119.524 88.0332 119.524 84.7721C119.524 81.511 116.881 78.8674 113.62 78.8674C110.358 78.8674 107.715 81.511 107.715 84.7721C107.715 88.0332 110.358 90.6768 113.62 90.6768Z" fill="#2F2E41"/>
<path d="M120.411 82.7056C120.41 81.217 119.847 79.7836 118.834 78.6927C117.821 77.6018 116.434 76.934 114.949 76.8233C115.096 76.8123 115.243 76.8009 115.392 76.8009C116.958 76.8009 118.46 77.423 119.567 78.5303C120.675 79.6377 121.297 81.1396 121.297 82.7056C121.297 84.2716 120.675 85.7735 119.567 86.8808C118.46 87.9881 116.958 88.6102 115.392 88.6102C115.243 88.6102 115.096 88.5988 114.949 88.5879C116.434 88.4771 117.821 87.8093 118.834 86.7185C119.847 85.6276 120.41 84.1942 120.411 82.7056Z" fill="#2F2E41"/>
<path d="M122.329 101.305C123.062 101.305 123.657 100.512 123.657 99.534C123.657 98.5557 123.062 97.7626 122.329 97.7626C121.595 97.7626 121 98.5557 121 99.534C121 100.512 121.595 101.305 122.329 101.305Z" fill="#FFB8B8"/>
<path d="M289.626 236.765H197.709L178.244 144.751H161.633V140.622H181.591L201.055 232.636H289.626V236.765Z" fill="#3F3D56"/>
<path d="M211.179 253.575C216.066 253.575 220.027 249.614 220.027 244.728C220.027 239.842 216.066 235.88 211.179 235.88C206.293 235.88 202.332 239.842 202.332 244.728C202.332 249.614 206.293 253.575 211.179 253.575Z" fill="#3F3D56"/>
<path d="M277.242 253.575C282.128 253.575 286.089 249.614 286.089 244.728C286.089 239.842 282.128 235.88 277.242 235.88C272.356 235.88 268.395 239.842 268.395 244.728C268.395 249.614 272.356 253.575 277.242 253.575Z" fill="#3F3D56"/>
<path d="M287.952 234.821H198.521L182.742 156.843H302.76C303.372 156.843 303.977 156.976 304.533 157.232C305.09 157.488 305.584 157.862 305.982 158.327C306.38 158.793 306.672 159.339 306.839 159.928C307.006 160.517 307.043 161.136 306.948 161.741L292.14 231.239C291.987 232.239 291.48 233.151 290.711 233.808C289.943 234.466 288.963 234.825 287.952 234.821ZM199.492 233.641H287.952C288.682 233.644 289.389 233.385 289.943 232.91C290.498 232.436 290.864 231.778 290.974 231.056L305.783 161.558C305.851 161.121 305.824 160.674 305.704 160.249C305.584 159.824 305.373 159.43 305.085 159.094C304.798 158.758 304.441 158.488 304.04 158.303C303.638 158.118 303.202 158.023 302.76 158.023H184.174L199.492 233.641Z" fill="#3F3D56"/>
<path d="M215.908 234.571L205.574 157.529L206.738 157.336L217.072 234.379L215.908 234.571Z" fill="#3F3D56"/>
<path d="M273.368 233.979L272.203 233.791L282.235 157.338L283.4 157.527L273.368 233.979Z" fill="#3F3D56"/>
<path d="M245.988 157.432H244.809V234.475H245.988V157.432Z" fill="#3F3D56"/>
<path d="M188.768 178.077L188.766 179.256L302.955 179.533L302.958 178.353L188.768 178.077Z" fill="#3F3D56"/>
<path d="M294.9 214.518L194.582 215.203L194.59 216.383L294.908 215.697L294.9 214.518Z" fill="#3F3D56"/>
<path d="M163.402 145.636C166.986 145.636 169.89 144.051 169.89 142.097C169.89 140.142 166.986 138.558 163.402 138.558C159.819 138.558 156.914 140.142 156.914 142.097C156.914 144.051 159.819 145.636 163.402 145.636Z" fill="#3F3D56"/>
</g>
<defs>
<clipPath id="clip0_1591_1950">
<rect width="307" height="256.196" fill="white"/>
</clipPath>
</defs>
</svg>
