<svg width="108" height="100" viewBox="0 0 108 100" fill="none" xmlns="http://www.w3.org/2000/svg">
<g clip-path="url(#clip0_579_411)">
<path d="M7.35835 93.7907C6.83914 93.7907 6.31888 93.8152 5.81079 93.8645L5.73685 93.8716C2.36672 94.2121 -0.0983652 96.1869 0.00301654 98.4656L0.0226152 98.8776C0.0355416 99.138 0.049312 99.418 0.0606461 99.7287C0.0667847 99.8819 0.249746 99.9995 0.477408 99.9995H83.3743C89.2189 99.9589 95.0424 99.9079 100.682 99.8478C101.74 99.8503 102.798 99.7877 103.848 99.6603C105.416 99.4484 106.503 99.0283 107.174 98.3759H107.174C108.009 97.5671 108.035 96.5484 107.984 95.3976C107.882 93.0738 107.78 90.6325 107.678 88.1987C107.588 86.0537 107.499 83.9145 107.409 81.8663C107.354 80.6509 107.231 79.5781 106.284 78.7581C105.257 77.8713 103.385 77.4219 100.718 77.4219C100.686 77.4219 100.654 77.4219 100.621 77.422C92.2649 77.456 83.9849 80.7391 80.0179 85.5917C79.5611 86.1505 79.1355 86.7487 78.7238 87.3273C78.122 88.2156 77.4578 89.0606 76.7362 89.8561C76.3354 90.2848 75.8959 90.6763 75.4232 91.0255C75.391 91.051 75.3541 91.0782 75.3151 91.1041C75.2259 91.1705 75.1327 91.2345 75.0418 91.2916C74.5161 91.6394 73.9548 91.931 73.3673 92.1614L73.3086 92.1839C73.2644 92.202 73.2165 92.22 73.1687 92.2365C72.83 92.3605 72.4848 92.466 72.1345 92.5523C70.6223 92.9331 68.9028 93.0244 67.024 92.8234C65.2887 92.6316 63.5828 92.2344 61.9427 91.6402C60.2028 91.012 58.5743 90.2287 56.9994 89.4712C56.3077 89.1383 55.5922 88.7943 54.8776 88.4683C54.7433 88.4069 54.6112 88.3469 54.477 88.2869C53.6043 87.8983 52.8131 87.5773 52.0581 87.3057C50.2037 86.6333 48.2633 86.2227 46.2938 86.0857C44.2155 85.9557 42.384 86.2009 40.8515 86.8129C40.4258 86.9825 40.0142 87.1852 39.6205 87.4189C37.8053 88.4959 36.6863 90.0855 35.6043 91.6228C34.2582 93.5349 32.8663 95.5122 30.1178 96.5373C26.9463 97.7211 22.317 97.2293 19.0418 96.374C18.0121 96.105 16.9836 95.7956 15.989 95.4963C15.5873 95.3754 15.1852 95.2553 14.783 95.136C13.9924 94.9028 13.3455 94.7242 12.7469 94.5733L12.5576 94.5252C12.4523 94.4991 12.3469 94.4729 12.2396 94.448C11.5286 94.2775 10.8666 94.1433 10.2147 94.0377L10.0604 94.012C9.7512 93.9655 9.46209 93.9267 9.17839 93.8941L9.06514 93.8813C8.49828 93.8205 7.92851 93.7902 7.35835 93.7907Z" fill="#F2F2F2"/>
<path d="M52.5028 49.2814C52.2532 49.3171 51.9987 49.2982 51.7573 49.2258C51.5159 49.1534 51.2934 49.0294 51.1055 48.8625C50.9176 48.6955 50.7688 48.4898 50.6696 48.2596C50.5704 48.0295 50.5233 47.7805 50.5315 47.5304L44.8086 45.3475L47.3998 43.5078L52.4371 45.8627C52.8597 45.9043 53.2523 46.0984 53.5404 46.4081C53.8285 46.7178 53.9921 47.1217 54.0001 47.5432C54.0082 47.9646 53.8602 48.3744 53.5842 48.6948C53.3082 49.0152 52.9234 49.2239 52.5026 49.2814L52.5028 49.2814Z" fill="#FFB7B7"/>
<path d="M49.2322 47.714L50.1257 44.5856L50.0818 44.5559L41.7118 38.9126L34.4764 31.707L30.2617 33.3784L30.5385 34.7024L30.5566 34.7187L40.1763 43.2706L40.1852 43.2749L49.2322 47.714Z" fill="#3F3D56"/>
<path d="M40.6568 54.8613L27.7031 53.0591L28.8432 45.1699H38.3797L40.6568 54.8613Z" fill="#FFB6B6"/>
<path d="M18.6465 93.4909L21.3037 94.1037L24.95 84.2228L21.0282 83.3184L18.6465 93.4909Z" fill="#FFB6B6"/>
<path d="M16.1758 97.7368L18.0813 98.1763L18.8395 96.4691L19.2926 98.4557L24.3466 99.6214C24.5889 99.6773 24.8428 99.6548 25.0713 99.5573C25.2998 99.4599 25.4909 99.2924 25.6168 99.0795C25.7426 98.8666 25.7966 98.6193 25.7708 98.3738C25.745 98.1282 25.6408 97.8973 25.4735 97.7147L22.0852 94.0173L22.5079 92.212L18.2039 91.4844L16.1758 97.7368Z" fill="#2F2E41"/>
<path d="M35.043 94.9611H37.771L39.0692 84.5176H35.043V94.9611Z" fill="#FFB6B6"/>
<path d="M33.6035 99.6516H35.5598L35.909 97.8184L36.8034 99.6516H41.9921C42.2408 99.6516 42.483 99.5727 42.6834 99.4264C42.8837 99.2801 43.0317 99.0741 43.1057 98.8384C43.1797 98.6028 43.1759 98.3498 43.0948 98.1164C43.0137 97.8831 42.8595 97.6815 42.6549 97.5413L38.5113 94.701V92.8477L34.1531 93.1058L33.6035 99.6516Z" fill="#2F2E41"/>
<path d="M27.5408 51.7189L40.2089 50.7188C43.9471 59.3859 41.5702 73.2219 38.6974 88.7974L34.6228 89.3203L34.3067 64.2923L24.0924 87.5758L19.8457 87.3603L27.5408 51.7189Z" fill="#2F2E41"/>
<path d="M34.915 28.8971V24.6433C34.915 23.1316 34.3099 21.6818 33.2329 20.6128C32.1559 19.5439 30.6952 18.9434 29.1721 18.9434C27.649 18.9434 26.1883 19.5439 25.1113 20.6128C24.0343 21.6818 23.4292 23.1316 23.4292 24.6433C22.417 26.7368 23.0503 27.7321 23.4292 28.8971C23.4296 29.1 23.5109 29.2944 23.6554 29.4379C23.8 29.5813 23.9959 29.6621 24.2003 29.6624H34.1435C34.348 29.6622 34.544 29.5815 34.6886 29.438C34.8332 29.2946 34.9146 29.1 34.915 28.8971Z" fill="#2F2E41"/>
<path d="M30.5875 29.5984C32.9129 29.5984 34.798 27.7273 34.798 25.4193C34.798 23.1113 32.9129 21.2402 30.5875 21.2402C28.2621 21.2402 26.377 23.1113 26.377 25.4193C26.377 27.7273 28.2621 29.5984 30.5875 29.5984Z" fill="#FFB7B7"/>
<path d="M36.2729 24.9835C36.2716 23.7881 35.7925 22.642 34.9409 21.7967C34.0892 20.9514 32.9345 20.476 31.7301 20.4746H30.8729C29.6685 20.476 28.5138 20.9514 27.6621 21.7967C26.8105 22.642 26.3314 23.7881 26.3301 24.9835V25.0686C26.9721 25.5042 27.5815 25.5679 28.1416 25.0686L28.7594 23.3515L28.8829 25.0686H29.8192L30.1314 24.2023L30.1938 25.0686C31.4584 26.1376 33.8499 25.6253 36.2729 25.0686V24.9835Z" fill="#2F2E41"/>
<path d="M28.1337 47.4762L38.854 47.0713L39.4533 40.1105C39.9154 38.8364 39.9229 37.7416 39.4755 36.8589C39.0907 36.1334 38.4441 35.5787 37.6651 35.3058L35.3193 32.4938C35.0176 32.1324 34.6387 31.842 34.21 31.6437C33.7814 31.4453 33.3137 31.3439 32.8408 31.3469L26.7455 31.3883C26.5987 31.3006 25.7075 30.8511 23.95 31.6069C22.0437 32.4269 22.4864 35.2758 22.4911 35.3044L22.4955 35.3312L22.5165 35.3494L26.5706 38.7387L28.1337 47.4762Z" fill="#3F3D56"/>
<path d="M76.9874 35.2363C70.0697 42.9741 49.256 44.45 35.708 58.6535C31.1659 44.9245 37.6004 21.2256 44.0129 12.1879C47.0923 7.84789 51.7827 4.89978 57.0521 3.99211C62.3215 3.08445 67.7384 4.29161 72.1111 7.34801C81.2167 13.7126 84.3793 26.9682 76.9874 35.2363Z" fill="#059669"/>
<path d="M60.225 27.8128C63.8572 27.8128 66.8016 24.8903 66.8016 21.2853C66.8016 17.6803 63.8572 14.7578 60.225 14.7578C56.5929 14.7578 53.6484 17.6803 53.6484 21.2853C53.6484 24.8903 56.5929 27.8128 60.225 27.8128Z" fill="white"/>
<path d="M30.1474 65.7616C32.5264 65.7616 34.4549 63.8475 34.4549 61.4863C34.4549 59.1251 32.5264 57.2109 30.1474 57.2109C27.7684 57.2109 25.8398 59.1251 25.8398 61.4863C25.8398 63.8475 27.7684 65.7616 30.1474 65.7616Z" fill="#059669"/>
<path d="M25.2189 61.178C25.0313 61.0108 24.8829 60.8047 24.7842 60.5744C24.6855 60.3441 24.6388 60.0951 24.6475 59.845C24.6561 59.5948 24.7199 59.3496 24.8343 59.1266C24.9488 58.9036 25.111 58.7081 25.3098 58.554L23.3301 52.7949L26.4144 53.5901L27.82 58.9369C28.0589 59.2855 28.1605 59.709 28.1057 60.1271C28.0508 60.5452 27.8433 60.9287 27.5225 61.2051C27.2017 61.4814 26.7899 61.6313 26.3652 61.6264C25.9405 61.6214 25.5323 61.4619 25.2182 61.1782L25.2189 61.178Z" fill="#FFB7B7"/>
<path d="M24.3358 57.6836L27.3284 56.36L26.323 46.3136L27.2593 36.1832L23.2638 34.043L22.4173 35.1024V35.1264L21.9688 47.9366L21.9711 47.9463L24.3358 57.6836Z" fill="#3F3D56"/>
<path d="M95.6884 76.7376C95.4793 77.5164 94.9297 78.1649 94.2662 78.6373C94.158 78.7146 94.047 78.7862 93.9345 78.8535C93.8999 78.8735 93.8653 78.895 93.8292 78.9136C93.7903 78.9365 93.7513 78.958 93.7124 78.978H90.5925C90.5363 78.8649 90.4815 78.7504 90.4267 78.6373C89.0896 75.8486 88.1506 72.8394 88.3107 69.7744C88.3743 68.5855 88.6259 67.414 89.0564 66.3028C89.9132 64.0881 91.4767 62.1712 93.6273 61.2063C93.6806 61.182 93.7369 61.1577 93.7917 61.1348C93.7744 61.1963 93.7571 61.2564 93.7398 61.318C93.5091 62.143 93.346 62.9851 93.2523 63.8362C93.2436 63.902 93.2364 63.9679 93.2306 64.0352C93.0257 66.0877 93.2077 68.1602 93.7672 70.1466C93.7686 70.1509 93.7701 70.1566 93.7715 70.1609C93.8941 70.6004 94.0364 71.0332 94.1984 71.4593C94.3254 71.7958 94.4624 72.1279 94.6124 72.4543C95.2384 73.8243 96.0778 75.2845 95.6884 76.7376Z" fill="#E6E6E6"/>
<path d="M93.8308 61.2004C93.8005 61.2405 93.7702 61.2792 93.74 61.3192C93.1064 62.1525 92.5685 63.0533 92.1361 64.0049C92.113 64.0521 92.0913 64.0994 92.0726 64.1481C91.4801 65.4768 91.0995 66.889 90.9447 68.334C90.943 68.3439 90.942 68.354 90.9418 68.3641C90.9057 68.7019 90.8841 69.0426 90.8754 69.3833C90.8434 70.022 90.913 70.6616 91.0817 71.2788C91.2355 71.7827 91.5051 72.2443 91.8692 72.6273C91.9053 72.666 91.9413 72.7046 91.9803 72.7418C92.0091 72.7719 92.0409 72.802 92.0712 72.8306C92.3625 73.1069 92.6813 73.3631 92.9553 73.6595C93.0809 73.7924 93.1944 73.9361 93.2943 74.089C93.4537 74.3452 93.5567 74.632 93.5965 74.9305C93.6363 75.2291 93.6119 75.5326 93.525 75.8212C93.3289 76.5455 92.8803 77.1568 92.4217 77.7395C92.1923 78.0315 91.9558 78.3264 91.751 78.6385C91.6759 78.7502 91.6067 78.8633 91.5433 78.9792H91.3615C91.4221 78.8633 91.4885 78.7502 91.5606 78.6385C92.087 77.8154 92.8356 77.1082 93.2236 76.202C93.4861 75.5907 93.5654 74.8978 93.2337 74.298C93.1365 74.1235 93.0188 73.9611 92.8832 73.8141C92.6193 73.5177 92.3034 73.2644 92.0164 72.9967C91.9442 72.9294 91.8736 72.8607 91.8058 72.7891C91.4464 72.4267 91.169 71.9923 90.9923 71.515C90.7921 70.9087 90.6975 70.2731 90.7125 69.6353C90.7125 69.2287 90.7341 68.8193 90.7745 68.4127C90.7788 68.3612 90.7846 68.3082 90.7904 68.2553C91.0853 65.6968 92.0649 63.2634 93.6275 61.2076C93.6563 61.1675 93.6866 61.1288 93.7169 61.0902C93.7789 61.01 93.8928 61.1217 93.8308 61.2004Z" fill="white"/>
<path d="M90.8483 68.4252C90.3487 68.3419 89.8953 68.0851 89.5688 67.7006C89.2424 67.3161 89.0644 66.8289 89.0664 66.3261C89.0667 66.3056 89.075 66.286 89.0895 66.2715C89.1041 66.2569 89.1237 66.2485 89.1444 66.2481C89.1651 66.2476 89.1851 66.2551 89.2003 66.2691C89.2154 66.283 89.2246 66.3022 89.2257 66.3227C89.2229 66.7909 89.3889 67.2447 89.6936 67.6021C89.9982 67.9595 90.4216 68.1971 90.8873 68.2719C90.9885 68.2883 90.9489 68.4415 90.8483 68.4252Z" fill="white"/>
<path d="M91.8302 72.6549C92.679 72.0661 93.273 71.1814 93.4937 70.1771C93.5155 70.0776 93.6699 70.1164 93.6482 70.2158C93.4165 71.2604 92.7965 72.1799 91.9119 72.7907C91.8275 72.8489 91.7463 72.7128 91.8302 72.6549Z" fill="white"/>
<path d="M92.0889 63.9877C92.2754 64.0599 92.4771 64.085 92.6758 64.0607C92.8745 64.0364 93.0641 63.9635 93.2274 63.8486C93.3109 63.7894 93.3921 63.9255 93.309 63.9843C93.128 64.1105 92.9186 64.1908 92.6991 64.2181C92.4796 64.2454 92.2567 64.2189 92.0499 64.141C92.0298 64.1353 92.0126 64.1222 92.0019 64.1043C91.9912 64.0865 91.9877 64.0653 91.9921 64.045C91.9974 64.0247 92.0105 64.0073 92.0286 63.9966C92.0467 63.9859 92.0684 63.9827 92.0889 63.9877Z" fill="white"/>
<path d="M104.651 66.7367C104.601 66.7754 104.549 66.814 104.498 66.8541C103.813 67.3743 103.172 67.9488 102.581 68.572C102.535 68.6192 102.489 68.6679 102.444 68.7166L102.443 68.718C101.041 70.2279 99.9334 71.982 99.1745 73.8918L99.1702 73.9046C99.1687 73.9089 99.1673 73.9118 99.1659 73.9161C98.8651 74.6805 98.6225 75.4663 98.4404 76.2667C98.2644 77.0484 98.1201 77.8859 97.8447 78.6389C97.8028 78.7548 97.7567 78.8694 97.7076 78.9796H91.2949C91.3166 78.8665 91.3396 78.752 91.3627 78.6389C91.6889 76.9801 92.1988 75.3621 92.883 73.8144C92.906 73.7629 92.9291 73.7114 92.9551 73.6598C93.3083 72.8951 93.7236 72.1602 94.1969 71.4624L94.197 71.4618L94.1974 71.4613L94.1978 71.461L94.1984 71.4609C94.4583 71.0802 94.7375 70.7127 95.0349 70.36C95.8063 69.4491 96.7176 68.6645 97.735 68.0352C97.7408 68.0309 97.748 68.028 97.7538 68.0237C99.7789 66.7768 102.179 66.1827 104.474 66.6966H104.475C104.534 66.7095 104.592 66.7224 104.651 66.7367Z" fill="#E6E6E6"/>
<path d="M104.644 66.8127C104.595 66.8256 104.546 66.8399 104.499 66.8542C103.488 67.1409 102.512 67.538 101.589 68.0381C101.543 68.0625 101.497 68.0882 101.451 68.114C100.176 68.8203 99.0183 69.718 98.0195 70.7753C98.0187 70.7761 98.0182 70.7771 98.0181 70.7782C98.0065 70.7896 97.9935 70.8025 97.9834 70.814C97.7527 71.0602 97.5305 71.3164 97.32 71.5798C96.908 72.071 96.5761 72.6231 96.3363 73.2161C96.153 73.7104 96.0883 74.2403 96.1473 74.7637C96.1517 74.8167 96.1589 74.8682 96.1661 74.9212C96.1718 74.9627 96.1776 75.0042 96.1848 75.0471C96.28 75.6212 96.4444 76.1967 96.3983 76.7822C96.3702 77.0822 96.2784 77.3729 96.129 77.6352C95.9796 77.8975 95.776 78.1254 95.5314 78.304C95.3652 78.4315 95.1875 78.5437 95.0006 78.639C94.7334 78.7757 94.455 78.8897 94.1684 78.9797H93.6016C93.678 78.9582 93.753 78.9367 93.8295 78.9153C94.1007 78.8393 94.3671 78.747 94.6271 78.639C94.7756 78.5773 94.9201 78.5066 95.0598 78.4271C95.6396 78.0964 96.1228 77.5896 96.2238 76.9125C96.3118 76.3198 96.1416 75.7271 96.0406 75.1473C96.0233 75.0471 96.0074 74.9484 95.9988 74.8496C95.9299 74.3475 95.9717 73.8366 96.1214 73.3521C96.3289 72.7478 96.6392 72.1833 97.0387 71.6829C97.2859 71.3572 97.5497 71.0442 97.8291 70.7452C97.8637 70.7066 97.8998 70.6679 97.9373 70.6293C98.9571 69.5644 100.135 68.6602 101.429 67.9479H101.431C102.393 67.416 103.414 66.9962 104.474 66.6967H104.475C104.523 66.6824 104.572 66.6681 104.62 66.6552C104.719 66.6294 104.742 66.7855 104.644 66.8127Z" fill="white"/>
<path d="M97.8801 70.7994C97.5317 70.4343 97.3254 69.9583 97.298 69.4562C97.2707 68.9541 97.424 68.4588 97.7306 68.0585C97.793 67.9778 97.9223 68.0701 97.8599 68.151C97.5737 68.5231 97.4309 68.9846 97.4574 69.4521C97.4838 69.9196 97.6778 70.3622 98.0042 70.7003C98.0751 70.7738 97.9505 70.8725 97.8801 70.7994Z" fill="white"/>
<path d="M96.0976 74.7612C97.1325 74.7982 98.1434 74.4468 98.9288 73.7769C99.0066 73.7104 99.1064 73.8337 99.0287 73.9001C98.2101 74.5957 97.1573 74.9593 96.0805 74.9184C95.9778 74.9144 95.9955 74.7573 96.0976 74.7612Z" fill="white"/>
<path d="M101.563 67.9961C101.668 68.1653 101.814 68.3058 101.987 68.4052C102.16 68.5045 102.356 68.5596 102.556 68.5654C102.659 68.5681 102.641 68.7253 102.539 68.7226C102.318 68.7152 102.102 68.6541 101.91 68.5447C101.718 68.4354 101.556 68.2811 101.438 68.0953C101.426 68.0787 101.42 68.0579 101.422 68.0373C101.425 68.0167 101.435 67.9976 101.451 67.9841C101.467 67.9711 101.488 67.965 101.509 67.9673C101.53 67.9695 101.549 67.9799 101.563 67.9961Z" fill="white"/>
<path d="M56.8251 97.3157C56.616 98.0945 56.0664 98.743 55.4029 99.2154C55.2948 99.2927 55.1837 99.3643 55.0712 99.4316C55.0366 99.4516 55.002 99.4731 54.9659 99.4917C54.927 99.5146 54.888 99.5361 54.8491 99.5561H51.7293C51.673 99.443 51.6182 99.3285 51.5634 99.2154C50.2263 96.4267 49.2874 93.4175 49.4475 90.3525C49.511 89.1636 49.7626 87.9921 50.1932 86.8809C51.0499 84.6662 52.6134 82.7494 54.764 81.7845C54.8173 81.7601 54.8736 81.7358 54.9284 81.7129C54.9111 81.7744 54.8938 81.8346 54.8765 81.8961C54.6458 82.7211 54.4827 83.5632 54.389 84.4143C54.3803 84.4801 54.3731 84.546 54.3673 84.6133C54.1624 86.6658 54.3444 88.7383 54.9039 90.7247C54.9053 90.729 54.9068 90.7347 54.9082 90.739C55.0308 91.1785 55.1731 91.6113 55.3351 92.0375C55.4621 92.3739 55.5991 92.706 55.7491 93.0324C56.3751 94.4024 57.2145 95.8627 56.8251 97.3157Z" fill="#E6E6E6"/>
<path d="M54.9675 81.7785C54.9373 81.8186 54.907 81.8573 54.8767 81.8974C54.2432 82.7306 53.7052 83.6314 53.2728 84.583C53.2497 84.6303 53.2281 84.6775 53.2093 84.7262C52.6168 86.0549 52.2363 87.4672 52.0814 88.9121C52.0797 88.9221 52.0788 88.9321 52.0785 88.9422C52.0425 89.28 52.0208 89.6207 52.0122 89.9615C51.9801 90.6001 52.0497 91.2398 52.2184 91.8569C52.3723 92.3608 52.6418 92.8224 53.0059 93.2054C53.042 93.2441 53.0781 93.2827 53.117 93.32C53.1458 93.35 53.1776 93.3801 53.2079 93.4087C53.4992 93.685 53.818 93.9413 54.092 94.2376C54.2176 94.3705 54.3311 94.5142 54.431 94.6671C54.5904 94.9233 54.6934 95.2101 54.7332 95.5087C54.773 95.8072 54.7486 96.1107 54.6618 96.3993C54.4656 97.1237 54.017 97.7349 53.5584 98.3176C53.329 98.6096 53.0925 98.9046 52.8877 99.2166C52.8127 99.3283 52.7434 99.4414 52.68 99.5573H52.4982C52.5588 99.4414 52.6252 99.3283 52.6973 99.2166C53.2237 98.3935 53.9723 97.6863 54.3603 96.7801C54.6228 96.1688 54.7022 95.4759 54.3704 94.8761C54.2732 94.7017 54.1555 94.5392 54.0199 94.3922C53.756 94.0959 53.4401 93.8425 53.1531 93.5748C53.081 93.5075 53.0103 93.4388 52.9425 93.3672C52.5831 93.0048 52.3057 92.5704 52.129 92.0931C51.9289 91.4869 51.8342 90.8512 51.8492 90.2134C51.8492 89.8069 51.8708 89.3974 51.9112 88.9908C51.9155 88.9393 51.9213 88.8863 51.9271 88.8334C52.222 86.2749 53.2017 83.8415 54.7642 81.7857C54.793 81.7456 54.8233 81.707 54.8536 81.6683C54.9156 81.5881 55.0296 81.6998 54.9675 81.7785Z" fill="white"/>
<path d="M51.9851 89.0033C51.4855 88.9201 51.032 88.6632 50.7056 88.2787C50.3792 87.8942 50.2011 87.4071 50.2031 86.9043C50.2034 86.8838 50.2117 86.8642 50.2263 86.8496C50.2408 86.835 50.2605 86.8266 50.2811 86.8262C50.3018 86.8257 50.3218 86.8333 50.337 86.8472C50.3521 86.8611 50.3613 86.8803 50.3625 86.9008C50.3597 87.369 50.5256 87.8228 50.8303 88.1802C51.135 88.5377 51.5584 88.7752 52.024 88.85C52.1252 88.8664 52.0857 89.0196 51.9851 89.0033Z" fill="white"/>
<path d="M52.9669 93.2331C53.8157 92.6442 54.4097 91.7595 54.6304 90.7553C54.6522 90.6558 54.8067 90.6946 54.7849 90.794C54.5532 91.8385 53.9332 92.758 53.0486 93.3688C52.9643 93.427 52.883 93.2909 52.9669 93.2331Z" fill="white"/>
<path d="M53.2256 84.5658C53.4121 84.638 53.6138 84.6631 53.8125 84.6388C54.0112 84.6145 54.2008 84.5417 54.3641 84.4267C54.4477 84.3675 54.5288 84.5037 54.4458 84.5625C54.2647 84.6886 54.0553 84.7689 53.8358 84.7962C53.6163 84.8235 53.3934 84.797 53.1866 84.7191C53.1665 84.7134 53.1493 84.7003 53.1386 84.6825C53.1279 84.6646 53.1244 84.6434 53.1289 84.6231C53.1341 84.6029 53.1472 84.5855 53.1653 84.5747C53.1835 84.564 53.2051 84.5608 53.2256 84.5658Z" fill="white"/>
<path d="M65.7878 87.3148C65.7374 87.3535 65.6854 87.3921 65.635 87.4322C64.9502 87.9524 64.3091 88.5269 63.7181 89.1501C63.6719 89.1974 63.6258 89.246 63.581 89.2947L63.5796 89.2961C62.1782 90.8061 61.0701 92.5601 60.3112 94.4699L60.3069 94.4828C60.3054 94.4871 60.304 94.4899 60.3026 94.4942C60.0018 95.2586 59.7592 96.0444 59.5771 96.8449C59.4011 97.6265 59.2569 98.464 58.9814 99.217C58.9395 99.333 58.8934 99.4475 58.8443 99.5577H52.4316C52.4533 99.4446 52.4763 99.3301 52.4994 99.217C52.8256 97.5582 53.3355 95.9402 54.0197 94.3926C54.0427 94.341 54.0658 94.2895 54.0918 94.238C54.445 93.4733 54.8603 92.7383 55.3337 92.0405L55.3338 92.0399L55.3341 92.0395L55.3345 92.0392L55.3351 92.0391C55.595 91.6583 55.8742 91.2908 56.1717 90.9382C56.9431 90.0272 57.8543 89.2427 58.8718 88.6133C58.8775 88.609 58.8847 88.6061 58.8905 88.6018C60.9156 87.3549 63.3157 86.7608 65.6104 87.2748H65.6119C65.671 87.2876 65.7287 87.3005 65.7878 87.3148Z" fill="#E6E6E6"/>
<path d="M65.781 87.3908C65.7319 87.4037 65.6829 87.418 65.6353 87.4323C64.6244 87.719 63.6487 88.1161 62.726 88.6162C62.6799 88.6406 62.6337 88.6663 62.5876 88.6921C61.3125 89.3985 60.155 90.2962 59.1562 91.3534C59.1554 91.3542 59.1549 91.3552 59.1548 91.3563C59.1432 91.3677 59.1303 91.3806 59.1202 91.3921C58.8894 91.6383 58.6673 91.8946 58.4567 92.158C58.0448 92.6491 57.7128 93.2012 57.473 93.7943C57.2897 94.2885 57.225 94.8184 57.284 95.3418C57.2884 95.3948 57.2956 95.4463 57.3028 95.4993C57.3086 95.5408 57.3143 95.5823 57.3215 95.6253C57.4167 96.1993 57.5812 96.7748 57.535 97.3603C57.5069 97.6604 57.4152 97.9511 57.2658 98.2134C57.1164 98.4756 56.9127 98.7036 56.6682 98.8821C56.5019 99.0097 56.3243 99.1218 56.1374 99.2171C55.8702 99.3538 55.5917 99.4678 55.3051 99.5578H54.7383C54.8147 99.5363 54.8897 99.5149 54.9662 99.4934C55.2374 99.4174 55.5038 99.3252 55.7638 99.2171C55.9123 99.1555 56.0568 99.0847 56.1965 99.0052C56.7763 98.6745 57.2595 98.1678 57.3605 97.4906C57.4485 96.8979 57.2783 96.3053 57.1773 95.7255C57.16 95.6253 57.1441 95.5265 57.1355 95.4277C57.0666 94.9256 57.1084 94.4147 57.2581 93.9303C57.4656 93.326 57.7759 92.7614 58.1754 92.261C58.4226 91.9353 58.6864 91.6223 58.9658 91.3234C59.0005 91.2847 59.0365 91.2461 59.074 91.2074C60.0938 90.1426 61.2714 89.2384 62.566 88.5261H62.5674C63.53 87.9942 64.5512 87.5743 65.6108 87.2748H65.6122C65.6598 87.2605 65.7089 87.2462 65.7564 87.2333C65.856 87.2076 65.879 87.3636 65.781 87.3908Z" fill="white"/>
<path d="M59.0168 91.3775C58.6684 91.0125 58.4621 90.5364 58.4348 90.0343C58.4074 89.5323 58.5607 89.0369 58.8674 88.6367C58.9297 88.5559 59.0591 88.6482 58.9967 88.7291C58.7104 89.1013 58.5677 89.5627 58.5941 90.0302C58.6206 90.4977 58.8145 90.9404 59.1409 91.2784C59.2118 91.3519 59.0873 91.4506 59.0168 91.3775Z" fill="white"/>
<path d="M57.2343 95.3393C58.2692 95.3764 59.2802 95.0249 60.0656 94.355C60.1433 94.2886 60.2431 94.4118 60.1654 94.4782C59.3468 95.1738 58.294 95.5374 57.2172 95.4965C57.1145 95.4926 57.1323 95.3354 57.2343 95.3393Z" fill="white"/>
<path d="M62.6993 88.5743C62.8044 88.7434 62.9502 88.8839 63.1236 88.9833C63.297 89.0827 63.4926 89.1377 63.6927 89.1435C63.7953 89.1462 63.7775 89.3034 63.6756 89.3007C63.4545 89.2933 63.2386 89.2322 63.0468 89.1229C62.855 89.0135 62.693 88.8592 62.5752 88.6734C62.5626 88.6568 62.5568 88.6361 62.5591 88.6154C62.5613 88.5948 62.5714 88.5758 62.5873 88.5622C62.6038 88.5492 62.6248 88.5431 62.6458 88.5454C62.6668 88.5476 62.686 88.558 62.6993 88.5743Z" fill="white"/>
<path d="M63.7621 58.3362C64.718 58.3362 65.4929 57.5671 65.4929 56.6183C65.4929 55.6695 64.718 54.9004 63.7621 54.9004C62.8062 54.9004 62.0312 55.6695 62.0312 56.6183C62.0312 57.5671 62.8062 58.3362 63.7621 58.3362Z" fill="#F2F2F2"/>
<path d="M85.2621 37.76C86.218 37.76 86.9929 36.9909 86.9929 36.0421C86.9929 35.0933 86.218 34.3242 85.2621 34.3242C84.3062 34.3242 83.5312 35.0933 83.5312 36.0421C83.5312 36.9909 84.3062 37.76 85.2621 37.76Z" fill="#F2F2F2"/>
<path d="M25.8382 3.4358C26.7942 3.4358 27.5691 2.66667 27.5691 1.7179C27.5691 0.769129 26.7942 0 25.8382 0C24.8823 0 24.1074 0.769129 24.1074 1.7179C24.1074 2.66667 24.8823 3.4358 25.8382 3.4358Z" fill="#F2F2F2"/>
<path d="M0.179863 99.8297H107.82C107.868 99.8297 107.914 99.8109 107.947 99.7774C107.981 99.7439 108 99.6985 108 99.6512C108 99.6038 107.981 99.5584 107.947 99.5249C107.914 99.4915 107.868 99.4727 107.82 99.4727H0.179863C0.132161 99.4727 0.0864126 99.4915 0.052682 99.5249C0.0189514 99.5584 0 99.6038 0 99.6512C0 99.6985 0.0189514 99.7439 0.052682 99.7774C0.0864126 99.8109 0.132161 99.8297 0.179863 99.8297Z" fill="#CCCCCC"/>
<path opacity="0.2" d="M65.9147 18.1602C66.7032 19.498 66.9862 21.0707 66.7131 22.5967C66.44 24.1227 65.6287 25.5025 64.4243 26.4891C63.2199 27.4756 61.7011 28.0045 60.1397 27.9812C58.5783 27.9578 57.0762 27.3837 55.9023 26.3616C56.3829 27.1785 57.0366 27.882 57.8183 28.4233C58.5999 28.9646 59.4907 29.3309 60.429 29.4966C61.3674 29.6624 62.3308 29.6238 63.2526 29.3835C64.1744 29.1431 65.0326 28.7068 65.7676 28.1046C66.5027 27.5025 67.0972 26.749 67.5098 25.8963C67.9224 25.0436 68.1434 24.112 68.1574 23.1661C68.1714 22.2203 67.978 21.2827 67.5908 20.4183C67.2036 19.5539 66.6317 18.7834 65.9147 18.1602Z" fill="#231F20"/>
<path opacity="0.2" d="M73.9892 9.25586C79.3879 16.1841 80.3191 26.1413 74.3371 32.8326C67.6533 40.3087 47.9983 41.9405 34.457 54.8528C34.6825 56.1994 35.008 57.5277 35.4308 58.8266C48.9788 44.6231 69.7925 43.1472 76.7102 35.4094C83.4841 27.8325 81.3935 16.0682 73.9892 9.25586Z" fill="#231F20"/>
</g>
<defs>
<clipPath id="clip0_579_411">
<rect width="108" height="100" fill="white"/>
</clipPath>
</defs>
</svg>
