<svg width="22" height="22" viewBox="0 0 22 22" fill="none" xmlns="http://www.w3.org/2000/svg">
<mask id="mask0_375_302" style="mask-type:luminance" maskUnits="userSpaceOnUse" x="0" y="0" width="21" height="22">
<path d="M20.977 0.759277H0.902344V21.2403H20.977V0.759277Z" fill="white"/>
</mask>
<g mask="url(#mask0_375_302)">
<path d="M20.9766 11.2346C20.9766 10.5385 20.9202 9.83864 20.7997 9.15381H11.1406V13.0972H16.6719C16.4424 14.3691 15.7049 15.4942 14.625 16.209V18.7677H17.925C19.8629 16.9842 20.9766 14.3503 20.9766 11.2346Z" fill="#4285F4"/>
<path d="M11.1414 21.2401C13.9033 21.2401 16.2325 20.3333 17.9295 18.7679L14.6295 16.2092C13.7114 16.8338 12.5261 17.1876 11.1452 17.1876C8.47357 17.1876 6.20835 15.3851 5.39559 12.9619H1.99023V15.5996C3.72866 19.0577 7.26947 21.2401 11.1414 21.2401Z" fill="#34A853"/>
<path d="M5.3913 12.9619C4.96234 11.6901 4.96234 10.3129 5.3913 9.04106V6.40332H1.98973C0.537279 9.29693 0.537279 12.706 1.98973 15.5996L5.3913 12.9619Z" fill="#FBBC04"/>
<path d="M11.1414 4.81154C12.6014 4.78897 14.0124 5.33833 15.0698 6.34677L17.9935 3.42306C16.1422 1.68464 13.6851 0.728888 11.1414 0.758991C7.26945 0.758991 3.72866 2.94143 1.99023 6.40321L5.39182 9.04095C6.20082 6.61392 8.4698 4.81154 11.1414 4.81154Z" fill="#EA4335"/>
</g>
</svg>
